<svg xmlns="http://www.w3.org/2000/svg" width="1200" height="675" viewBox="0 0 1200 675">
  <defs><linearGradient id="g" x1="0" x2="1" y1="0" y2="1"><stop stop-color="#1e1b4b"/><stop offset="0.55" stop-color="#6d28d9"/><stop offset="1" stop-color="#7c2d12"/></linearGradient></defs>
  <rect width="1200" height="675" fill="url(#g)"/>
  <text x="85" y="120" font-family="Inter,Arial" font-size="50" font-weight="800" fill="#fff">TULU AI Risk Framework</text>
  <text x="88" y="170" font-family="Inter,Arial" font-size="25" fill="#ede9fe">Risk and change management for an AI-based rental kiosk platform</text>
  <g transform="translate(740 235)">
    <rect x="0" y="0" width="90" height="90" fill="#22c55e"/><rect x="95" y="0" width="90" height="90" fill="#eab308"/><rect x="190" y="0" width="90" height="90" fill="#ef4444"/>
    <rect x="0" y="95" width="90" height="90" fill="#eab308"/><rect x="95" y="95" width="90" height="90" fill="#f97316"/><rect x="190" y="95" width="90" height="90" fill="#dc2626"/>
    <rect x="0" y="190" width="90" height="90" fill="#ef4444"/><rect x="95" y="190" width="90" height="90" fill="#dc2626"/><rect x="190" y="190" width="90" height="90" fill="#991b1b"/>
  </g>
  <g font-family="Inter,Arial" font-size="25" font-weight="700" fill="#fff">
    <rect x="90" y="265" width="480" height="68" rx="18" fill="rgba(255,255,255,.12)"/><text x="122" y="308">GDPR and data protection</text>
    <rect x="90" y="360" width="480" height="68" rx="18" fill="rgba(255,255,255,.12)"/><text x="122" y="403">Fraud and misuse controls</text>
    <rect x="90" y="455" width="480" height="68" rx="18" fill="rgba(255,255,255,.12)"/><text x="122" y="498">Stakeholder change planning</text>
  </g>
</svg>